<svg xmlns="http://www.w3.org/2000/svg" width="45" height="45" viewBox="0 0 45 45">
  <g id="floor" transform="translate(-0.001)">
    <g id="Group_1" data-name="Group 1" transform="translate(0.001)">
      <path id="Path_2" data-name="Path 2" d="M44.187,0H.815A.814.814,0,0,0,0,.814V13.046a.814.814,0,1,0,1.628,0V8.84l4.416,4.416L1.629,17.671V15.706a.814.814,0,1,0-1.628,0v28.48A.814.814,0,0,0,.815,45H44.187A.814.814,0,0,0,45,44.186V.814A.814.814,0,0,0,44.187,0ZM42.066,1.628l-4.26,4.26-4.261-4.26Zm-12.274,0-4.26,4.26L21.27,1.628Zm-2.98,7.844a.814.814,0,1,0,1.151-1.151L26.682,7.041l4.985-4.985,11.2,11.2-4.986,4.986-8.074-8.074a.814.814,0,1,0-1.151,1.151l1.937,1.937-4.986,4.986-11.2-11.2,4.985-4.985Zm-2.354,9.92-11.2,11.2L8.271,25.608l11.2-11.2ZM17.517,1.628l-4.26,4.26L9,1.628Zm-15.887,0H5.243L1.629,5.242Zm.5,5.412L7.119,2.055l11.2,11.2-4.986,4.986Zm-.5,12.933.006-.005L7.2,14.407l4.985,4.986L1.629,29.946Zm0,13.57L6.046,37.96,1.629,42.375V33.544Zm1.306,9.828L7.2,39.111l4.26,4.26Zm-.8-11.627,4.985-4.986,11.2,11.2-4.986,4.986ZM15.211,43.372l4.261-4.261,4.261,4.261Zm-.8-11.627,4.986-4.986,11.2,11.2-4.986,4.986ZM27.485,43.372l4.261-4.261,4.261,4.261Zm-.8-11.627,1.654-1.654a.814.814,0,1,0-1.151-1.151l-1.654,1.654-4.986-4.986,11.2-11.2,4.986,4.986-7.918,7.918a.814.814,0,0,0,1.151,1.151l1.7-1.7,11.2,11.2-4.986,4.986Zm16.69,11.627H39.759l3.613-3.613v3.613Zm0-7.211-4.416-4.416,4.416-4.417Zm-.007-11.129-5.561,5.562-4.986-4.986L43.372,15.054v9.971h0Zm.007-13.576L38.957,7.04l4.416-4.416Z" transform="translate(-0.001)" fill="#2dceef"/>
    </g>
  </g>
</svg>
