<svg xmlns="http://www.w3.org/2000/svg" width="45" height="41.875" viewBox="0 0 45 41.875">
  <g id="hammer" transform="translate(0 -16.97)">
    <g id="Group_2" data-name="Group 2" transform="translate(0 16.97)">
      <path id="Path_3" data-name="Path 3" d="M44.784,30.728h0l-1.652-1.652a2.193,2.193,0,0,0-1.562-.647h-1.9a.737.737,0,0,1-.521-.215l-.61-.611a.737.737,0,0,1,0-1.042h0l.521-.521a.737.737,0,0,0,0-1.042L33.862,19.81a.735.735,0,0,0-.112-.091,14.078,14.078,0,0,0-7.3-2.367l-10.283-.381a.737.737,0,0,0-.327,1.409l9.723,4.34a11.093,11.093,0,0,1,2.554,1.768l-2.6,2.6a.737.737,0,0,0,0,1.042L1.033,52.6a3.683,3.683,0,0,0,5.208,5.208l24.48-24.479a.737.737,0,0,0,1.042,0l1.563-1.562a.754.754,0,0,1,1.042,0l.61.61a.731.731,0,0,1,.216.521v1.9a2.192,2.192,0,0,0,.647,1.562l1.651,1.652a.737.737,0,0,0,1.042,0h0l6.25-6.25A.737.737,0,0,0,44.784,30.728ZM5.2,56.77a2.21,2.21,0,0,1-3.125-3.125L26.554,29.165l3.125,3.125ZM38.012,36.458l-1.13-1.131a.742.742,0,0,1-.216-.521V32.9a2.2,2.2,0,0,0-.647-1.562l-.61-.611a2.21,2.21,0,0,0-3.125,0l-1.042,1.042L27.076,27.6l2.6-2.6a.737.737,0,0,0,0-1.042l-.208-.208a12.6,12.6,0,0,0-3.283-2.357l-6.282-2.807,6.486.24A12.6,12.6,0,0,1,32.875,20.9l4.616,4.616a2.213,2.213,0,0,0,0,3.125l.611.611a2.2,2.2,0,0,0,1.562.647h1.9a.742.742,0,0,1,.521.216l1.131,1.131Z" transform="translate(0 -16.97)" fill="#2dceef"/>
    </g>
  </g>
</svg>
