<svg xmlns="http://www.w3.org/2000/svg" width="45" height="57.344" viewBox="0 0 45 57.344">
  <g id="overflow" transform="translate(-3.728)">
    <path id="Path_4" data-name="Path 4" d="M37.276,33.8h3.839V57.344H3.728V33.8H7.565V53.529H37.273C37.276,46.945,37.276,40.38,37.276,33.8ZM26.342,7.446Q32.729,16.812,39.1,26.152c1.344-.919,2.667-1.821,4-2.726q-6.4-9.376-12.758-18.7C29,5.632,27.683,6.53,26.342,7.446ZM38.316,26.811l-19.5-11.5-2.46,4.167,19.5,11.5C36.685,29.575,37.5,28.2,38.316,26.811ZM44.853,0c-1.6.278-3.162.551-4.766.828,1.291,7.448,2.586,14.867,3.874,22.3,1.609-.278,3.182-.553,4.768-.828Q46.789,11.121,44.853,0ZM35.46,32.345c-7.3-1.967-14.572-3.918-21.864-5.88-.42,1.559-.836,3.1-1.258,4.671Q23.286,34.081,34.2,37.014C34.629,35.445,35.043,33.9,35.46,32.345ZM33.409,44.868h-22.6v4.809h22.6Zm.566-6.216c-7.527-.692-15.028-1.387-22.545-2.076-.151,1.617-.3,3.208-.449,4.817q11.291,1.038,22.546,2.076C33.679,41.85,33.825,40.259,33.975,38.652Z" transform="translate(0)" fill="#2dceef"/>
  </g>
</svg>
