<svg xmlns="http://www.w3.org/2000/svg" width="45.571" height="32.659" viewBox="0 0 45.571 32.659">
  <g id="truck" transform="translate(0 -72.533)">
    <g id="Group_4" data-name="Group 4" transform="translate(6.076 96.078)">
      <g id="Group_3" data-name="Group 3">
        <path id="Path_5" data-name="Path 5" d="M72.824,337.067a4.557,4.557,0,1,0,4.557,4.557A4.562,4.562,0,0,0,72.824,337.067Zm0,7.6a3.038,3.038,0,1,1,3.038-3.038A3.041,3.041,0,0,1,72.824,344.662Z" transform="translate(-68.267 -337.067)" fill="#2dceef"/>
      </g>
    </g>
    <g id="Group_6" data-name="Group 6" transform="translate(31.9 96.078)">
      <g id="Group_5" data-name="Group 5">
        <path id="Path_6" data-name="Path 6" d="M362.957,337.067a4.557,4.557,0,1,0,4.557,4.557A4.562,4.562,0,0,0,362.957,337.067Zm0,7.6A3.038,3.038,0,1,1,366,341.624,3.041,3.041,0,0,1,362.957,344.662Z" transform="translate(-358.4 -337.067)" fill="#2dceef"/>
      </g>
    </g>
    <g id="Group_8" data-name="Group 8" transform="translate(28.862 80.888)">
      <g id="Group_7" data-name="Group 7" transform="translate(0 0)">
        <path id="Path_7" data-name="Path 7" d="M340.856,177.382l-6.836-10.633a.76.76,0,0,0-.639-.349h-8.355a.759.759,0,0,0-.759.759v18.988a.759.759,0,0,0,.759.759h3.038v-1.519h-2.279V167.919h7.18l6.491,10.1v7.372h-3.8v1.519h4.557a.759.759,0,0,0,.759-.759v-8.355A.758.758,0,0,0,340.856,177.382Z" transform="translate(-324.267 -166.4)" fill="#2dceef"/>
      </g>
    </g>
    <g id="Group_10" data-name="Group 10" transform="translate(31.9 83.926)">
      <g id="Group_9" data-name="Group 9">
        <path id="Path_8" data-name="Path 8" d="M359.92,207.369v-5.317H366v-1.519h-6.836a.759.759,0,0,0-.759.759v6.836a.759.759,0,0,0,.759.759h11.393v-1.519H359.92Z" transform="translate(-358.401 -200.533)" fill="#2dceef"/>
      </g>
    </g>
    <g id="Group_12" data-name="Group 12" transform="translate(0 75.571)">
      <g id="Group_11" data-name="Group 11">
        <path id="Path_9" data-name="Path 9" d="M29.621,106.667H.759a.76.76,0,0,0-.759.759v24.3a.759.759,0,0,0,.759.759H6.836v-1.519H1.519V108.186H28.862v22.786H14.431v1.519h15.19a.759.759,0,0,0,.759-.759v-24.3A.759.759,0,0,0,29.621,106.667Z" transform="translate(0 -106.667)" fill="#2dceef"/>
      </g>
    </g>
    <g id="Group_14" data-name="Group 14" transform="translate(0.759 96.838)">
      <g id="Group_13" data-name="Group 13" transform="translate(0 0)">
        <rect id="Rectangle_25" data-name="Rectangle 25" width="4.557" height="1.519" fill="#2dceef"/>
      </g>
    </g>
    <g id="Group_16" data-name="Group 16" transform="translate(15.95 96.838)">
      <g id="Group_15" data-name="Group 15" transform="translate(0 0)">
        <rect id="Rectangle_26" data-name="Rectangle 26" width="12.912" height="1.519" fill="#2dceef"/>
      </g>
    </g>
    <g id="Group_18" data-name="Group 18" transform="translate(41.774 96.838)">
      <g id="Group_17" data-name="Group 17" transform="translate(0 0)">
        <rect id="Rectangle_27" data-name="Rectangle 27" width="3.038" height="1.519" fill="#2dceef"/>
      </g>
    </g>
    <g id="Group_20" data-name="Group 20" transform="translate(3.038 78.609)">
      <g id="Group_19" data-name="Group 19">
        <rect id="Rectangle_28" data-name="Rectangle 28" width="26.583" height="1.519" fill="#2dceef"/>
      </g>
    </g>
    <g id="Group_22" data-name="Group 22" transform="translate(9.874 99.876)">
      <g id="Group_21" data-name="Group 21">
        <rect id="Rectangle_29" data-name="Rectangle 29" width="1.519" height="1.519" fill="#2dceef"/>
      </g>
    </g>
    <g id="Group_24" data-name="Group 24" transform="translate(35.697 99.876)">
      <g id="Group_23" data-name="Group 23">
        <rect id="Rectangle_30" data-name="Rectangle 30" width="1.519" height="1.519" fill="#2dceef"/>
      </g>
    </g>
    <g id="Group_26" data-name="Group 26" transform="translate(3.038 72.533)">
      <g id="Group_25" data-name="Group 25">
        <rect id="Rectangle_31" data-name="Rectangle 31" width="10.633" height="1.519" fill="#2dceef"/>
      </g>
    </g>
    <g id="Group_28" data-name="Group 28" transform="translate(0 72.533)">
      <g id="Group_27" data-name="Group 27">
        <rect id="Rectangle_32" data-name="Rectangle 32" width="1.519" height="1.519" fill="#2dceef"/>
      </g>
    </g>
  </g>
</svg>
