<svg xmlns="http://www.w3.org/2000/svg" width="35" height="31.394" viewBox="0 0 35 31.394">
  <g id="under-construction" transform="translate(0 -17)">
    <path id="Path_1" data-name="Path 1" d="M33.975,33.682A1.006,1.006,0,0,0,35,32.7V25.341a1.006,1.006,0,0,0-1.025-.985H18.525V17.985A1.006,1.006,0,0,0,17.5,17H6.563a1.006,1.006,0,0,0-1.025.985v6.371H1.025A1.006,1.006,0,0,0,0,25.341V32.7a1.006,1.006,0,0,0,1.025.985H5.537v5.386H1.025A1.006,1.006,0,0,0,0,40.053v7.356a1.006,1.006,0,0,0,1.025.985H33.975A1.006,1.006,0,0,0,35,47.409V40.053a1.006,1.006,0,0,0-1.025-.985H29.463V33.682Zm-1.025-1.97H23.994V26.326h8.955Zm-11.006,0H13.057V26.326h8.887ZM7.588,18.97h8.887v5.386H7.588ZM2.051,31.712V26.326h8.955v5.386Zm5.537,1.97h8.887v5.386H7.588ZM2.051,41.038h8.955v5.386H2.051Zm11.006,0h8.887v5.386H13.057Zm19.893,0v5.386H23.994V41.038Zm-5.537-1.97H18.525V33.682h8.887Z" transform="translate(0 0)" fill="rgba(0,255,255,0.6)"/>
  </g>
</svg>
